<svg width="120" height="123" viewBox="0 0 120 123" fill="none" xmlns="http://www.w3.org/2000/svg">
<path opacity="0.5" d="M45.2514 17.9129C44.9356 17.4921 44.482 17.2168 43.9836 17.1435C43.4852 17.0702 42.9795 17.2043 42.5701 17.5184C42.1606 17.8325 41.8783 18.3029 41.781 18.8333C41.6836 19.3637 41.7785 19.914 42.0462 20.3717C42.4111 20.9652 42.8154 21.5376 43.2001 22.0887C47.8253 28.808 50.2218 36.9263 52.2928 45.0234C52.7957 47.0053 53.279 49.1144 52.707 51.0751C53.4215 45.7955 53.0853 40.4132 51.7208 35.2836C50.3663 30.1702 48.6282 25.1832 46.5235 20.3717C46.1822 19.5058 45.7557 18.6815 45.2514 17.9129V17.9129Z" fill="#BED4EB"/>
<path d="M15.2119 32.0408C12.0857 31.9348 11.6912 37.022 14.7977 37.287C15.6163 37.3612 16.4348 37.3824 17.2237 37.4036C26.7898 37.6791 35.8234 41.4097 44.5118 45.4159C46.6519 46.4016 48.8905 47.5356 50.1331 49.6552C46.0975 44.8559 41.1277 41.0709 35.5769 38.5694C30.0158 36.0675 24.269 34.0715 18.3973 32.6025C17.3579 32.2901 16.2897 32.1018 15.2119 32.0408V32.0408Z" fill="#BED4EB"/>
<path opacity="0.2" d="M16.0799 44.5472C14.1075 44.6214 14.5513 47.6419 16.5434 47.6525C17.0562 47.6525 17.5296 47.6525 18.0721 47.6525C24.1076 47.3875 30.2811 49.1786 36.2772 51.1499C37.7926 51.5081 39.1999 52.2698 40.3699 53.365C37.1873 50.7243 33.5804 48.7341 29.7288 47.4935C25.9441 46.2667 22.0812 45.3387 18.1706 44.7168C17.4802 44.5897 16.7802 44.533 16.0799 44.5472V44.5472Z" fill="#BED4EB"/>
<path opacity="0.5" d="M56.4352 100.538C56.9974 102.573 59.601 101.365 59.1276 99.2874C58.9994 98.7469 58.8514 98.2276 58.7035 97.7082C56.9776 91.487 57.0565 84.6193 57.3425 77.8894C57.2941 76.2224 57.6331 74.5687 58.3287 73.0778C56.7313 77.0428 55.8222 81.2884 55.6463 85.605C55.4952 89.8492 55.6303 94.0997 56.0506 98.323C56.1143 99.0726 56.243 99.8142 56.4352 100.538V100.538Z" fill="#BED4EB"/>
<path opacity="0.2" d="M19.6798 15.0837C18.4865 14.8611 18.3977 16.7264 19.5811 17.002L20.4983 17.1928C24.1373 17.8605 27.6087 19.7682 30.9618 21.7606C31.8224 22.1809 32.5717 22.8258 33.1413 23.6366C31.5533 21.6271 29.6343 19.9493 27.4806 18.6871C25.3587 17.4582 23.1571 16.3957 20.8928 15.5076C20.5005 15.3292 20.0947 15.1874 19.6798 15.0837Z" fill="#BED4EB"/>
<path d="M1.34598 64.3337C-1.66192 65.9976 0.882449 70.5761 3.97911 69.0606C4.78779 68.6578 5.57675 68.2127 6.32626 67.7993C15.5373 62.6592 26.2277 60.7727 36.7406 59.3207C39.3244 58.9603 42.0759 58.653 44.4625 59.7446C37.8916 57.9123 31.0515 57.4731 24.3243 58.4516C17.6744 59.4262 11.1036 60.9462 4.66946 62.9983C3.52244 63.3215 2.40891 63.7689 1.34598 64.3337Z" fill="#BED4EB"/>
<path opacity="0.5" d="M9.9555 82.1386C7.78586 84.2583 11.1685 86.8655 13.4368 84.7882C14.0285 84.2371 14.6005 83.6648 15.133 83.1242C21.7307 76.4685 30.4487 71.731 39.1272 67.3645C41.2574 66.3047 49.9754 65.2449 52.3718 65.2449C46.2574 65.8384 33.7623 67.8839 28.21 70.544C22.7562 73.3375 17.4844 76.5243 12.4309 80.0825C11.5479 80.6835 10.7192 81.3718 9.9555 82.1386Z" fill="#BED4EB"/>
<path d="M25.3895 110.553C24.7584 113.658 28.8905 113.732 29.6598 110.553C29.857 109.747 30.0246 108.931 30.1824 108.147C32.0858 98.6085 36.7505 89.4198 41.5829 80.5278C42.7663 78.3445 49.4034 72.0491 51.3659 70.7137C46.642 74.9531 37.4507 84.2478 34.3245 89.8649C31.3331 95.4829 28.6973 101.311 26.4349 107.31C25.9957 108.354 25.6458 109.44 25.3895 110.553Z" fill="#BED4EB"/>
<path d="M56.4739 1.46452C54.9946 -1.76797 50.7835 0.89221 52.1248 4.20948C52.4699 5.06795 52.8644 5.91582 53.2392 6.73189C57.7757 16.5989 59.3437 28.0133 60.5074 39.2369C60.7934 41.9819 61.04 44.9176 59.9946 47.4506C61.773 40.4776 62.282 33.2012 61.4936 26.0208C60.7049 18.9249 59.4192 11.903 57.6475 5.01495C57.3673 3.79241 56.9742 2.60303 56.4739 1.46452V1.46452Z" fill="#BED4EB"/>
<path d="M32.9629 6.96547C33.0365 7.01569 33.1223 7.0415 33.2094 7.03967C33.2899 7.02529 33.365 6.98685 33.426 6.92874C33.4871 6.87063 33.5316 6.79521 33.5546 6.71112C33.9293 5.84206 33.7124 4.72923 34.2844 4.00854C34.8585 4.75361 35.321 5.59033 35.6552 6.48855L37.8248 5.76787C37.9253 6.21847 37.9404 6.68618 37.8692 7.14318C37.7981 7.60018 37.6421 8.03714 37.4106 8.42804C37.7783 8.60938 38.1124 8.86072 38.3968 9.16992C38.5397 9.33031 38.6391 9.5296 38.6843 9.74627C38.7295 9.96294 38.7188 10.1887 38.6533 10.3993C38.1542 10.5359 37.6391 10.593 37.1246 10.5689C37.2095 11.5892 37.1564 12.6173 36.9668 13.6212C36.9535 13.7729 36.8864 13.9134 36.7795 14.0134C36.6925 14.0501 36.5979 14.0607 36.5058 14.0439C36.4136 14.0271 36.3276 13.9835 36.2568 13.918C35.5073 13.4226 34.8918 12.7246 34.4718 11.8937L33.6729 13.9498C33.6132 14.1643 33.4837 14.3487 33.308 14.4691C33.187 14.5153 33.0551 14.5163 32.9335 14.4721C32.8118 14.4279 32.7075 14.341 32.6374 14.2253C32.506 13.9857 32.4252 13.718 32.4007 13.441L32.095 11.4698C32.0923 11.3685 32.0575 11.2713 31.9964 11.1942C31.9064 11.1203 31.7935 11.0862 31.6808 11.0988C30.9116 11.0988 30.1522 11.0988 29.3929 11.0988C29.2548 10.6643 29.6591 10.2616 30.0536 10.039C30.4481 9.81643 30.9017 9.71044 31.099 9.30771C31.5033 8.47044 30.4678 7.31522 30.9116 6.60513C31.3554 5.89504 32.3219 6.60513 32.9629 6.96547Z" fill="#BED4EB"/>
<path opacity="0.5" d="M74.7387 17.9134C75.0421 17.4552 75.5024 17.1453 76.0184 17.0519C76.5344 16.9585 77.0639 17.0892 77.4902 17.4153C77.9165 17.7413 78.2049 18.236 78.2918 18.7906C78.3787 19.3451 78.2571 19.914 77.9537 20.3722C77.5789 20.9657 77.1845 21.538 76.7999 22.0891C72.1746 28.8085 69.7682 36.9268 67.7071 45.0239C67.1943 47.0058 66.7209 49.1149 67.283 51.0755C66.5689 45.796 66.905 40.4137 68.2692 35.284C69.6193 30.1691 71.3576 25.1817 73.4665 20.3722C73.8076 19.5061 74.234 18.6818 74.7387 17.9134V17.9134Z" fill="#BED4EB"/>
<path d="M104.779 32.0408C107.895 31.9348 108.299 37.022 105.183 37.287C104.374 37.3612 103.546 37.3824 102.767 37.4036C93.2007 37.6791 84.1573 41.4097 75.4689 45.4159C73.3387 46.4016 71.1 47.5356 69.8574 49.6552C73.893 44.8559 78.8629 41.0709 84.4137 38.5694C89.972 36.069 95.7153 34.0731 101.583 32.6025C102.626 32.291 103.698 32.1026 104.779 32.0408V32.0408Z" fill="#BED4EB"/>
<path opacity="0.5" d="M103.97 44.5471C105.942 44.6213 105.488 47.6418 103.506 47.6524C102.984 47.6524 102.471 47.6524 101.978 47.6524C95.9421 47.3875 89.7685 49.1786 83.7724 51.1499C82.2563 51.5059 80.8485 52.2679 79.6797 53.3649C82.8611 50.7222 86.4683 48.7318 90.3207 47.4935C94.1129 46.28 97.9826 45.3661 101.899 44.7591C102.581 44.6192 103.275 44.5482 103.97 44.5471V44.5471Z" fill="#BED4EB"/>
<path opacity="0.2" d="M100.321 15.0837C101.514 14.8611 101.603 16.7264 100.42 17.002L99.4925 17.1928C95.8633 17.8605 92.382 19.7682 89.0388 21.7606C88.1782 22.1809 87.429 22.8258 86.8594 23.6366C88.4439 21.6274 90.3595 19.9496 92.5103 18.6871C94.6364 17.4601 96.8412 16.3976 99.1079 15.5076C99.4997 15.3278 99.9056 15.1859 100.321 15.0837V15.0837Z" fill="#BED4EB"/>
<path opacity="0.2" d="M69.4531 104.396C69.1869 105.657 67.5596 105.031 67.7766 103.749C67.7766 103.41 67.9048 103.081 67.9738 102.763C68.8022 98.9057 68.4965 94.7193 68.0823 90.6284C68.0491 89.6129 67.7814 88.6222 67.3032 87.7456C68.4183 90.0919 69.1204 92.6394 69.3742 95.2598C69.622 97.8438 69.6978 100.443 69.6011 103.039C69.5957 103.495 69.5461 103.95 69.4531 104.396V104.396Z" fill="#BED4EB"/>
<path opacity="0.5" d="M99.5614 96.002C100.488 97.6871 98.2103 97.5705 97.2142 95.8854C96.9479 95.4403 96.7113 94.9952 96.4746 94.5712C93.654 89.4098 89.3542 84.3014 85.0248 79.3732C84.0031 78.0921 82.8099 76.9813 81.4844 76.0771C84.8626 78.5549 87.9807 81.4191 90.7842 84.6194C93.5653 87.7989 96.011 90.9784 98.4173 94.2427C98.8351 94.8007 99.2174 95.3885 99.5614 96.002V96.002Z" fill="#BED4EB"/>
<path opacity="0.2" d="M17.0761 96.002C16.1491 97.6871 18.4272 97.5705 19.4331 95.8854C19.6896 95.4403 19.9361 94.9952 20.1629 94.5712C22.9834 89.4098 27.2832 84.3014 31.6126 79.3732C32.6379 78.0919 33.8343 76.9811 35.1629 76.0771C31.7816 78.5547 28.6602 81.4189 25.8532 84.6194C23.082 87.7989 20.6264 90.9784 18.2201 94.2427C17.8023 94.8007 17.4201 95.3885 17.0761 96.002Z" fill="#BED4EB"/>
<path opacity="0.2" d="M47.2437 104.396C47.51 105.657 49.1372 105.031 48.9301 103.749C48.8709 103.41 48.8019 103.081 48.7329 102.763C47.9045 98.9057 48.2003 94.7193 48.6244 90.6284C48.6496 89.6129 48.9142 88.621 49.3936 87.7456C48.2785 90.0919 47.5764 92.6394 47.3226 95.2598C47.0732 97.8437 47.0007 100.444 47.1057 103.039C47.1128 103.495 47.159 103.949 47.2437 104.396Z" fill="#BED4EB"/>
<path opacity="0.2" d="M90.8235 27.7697C92.0069 27.5471 92.0957 29.4018 90.9123 29.688C90.6065 29.7622 90.291 29.8152 89.9951 29.8682C86.356 30.5359 82.8846 32.4436 79.5315 34.4467C78.6726 34.87 77.9241 35.5143 77.3521 36.3226C78.9397 34.3098 80.8586 32.6285 83.0128 31.3625C85.1346 30.1334 87.3362 29.0708 89.6006 28.183C89.9944 28.002 90.4041 27.8635 90.8235 27.7697V27.7697Z" fill="#BED4EB"/>
<path opacity="0.2" d="M79.7291 2.87368C80.7153 2.18479 81.4845 3.86992 80.4884 4.61181L79.6995 5.15231C76.5634 7.27198 73.9992 10.3985 71.5831 13.631C70.9291 14.3687 70.4607 15.2732 70.2222 16.2594C70.9935 13.754 72.1869 11.4225 73.7428 9.38105C75.278 7.3785 76.9457 5.49769 78.733 3.75333C79.0361 3.42428 79.3699 3.12954 79.7291 2.87368V2.87368Z" fill="#BED4EB"/>
<path d="M118.654 64.3337C121.662 65.9977 119.118 70.5761 116.021 69.0606C115.212 68.6579 114.423 68.2127 113.664 67.7994C104.463 62.6592 93.7724 60.7727 83.2595 59.3207C80.6757 58.9604 77.9242 58.653 75.5376 59.7447C82.1053 57.9137 88.942 57.4746 95.6659 58.4517C102.319 59.4251 108.893 60.9451 115.331 62.9983C116.477 63.325 117.59 63.7723 118.654 64.3337Z" fill="#BED4EB"/>
<path opacity="0.5" d="M110.045 82.1386C112.214 84.2583 108.832 86.8655 106.563 84.7882C105.972 84.2371 105.4 83.6648 104.857 83.1242C98.2597 76.4685 89.5515 71.731 80.8632 67.3645C78.7428 66.3047 69.9657 65.2449 67.6284 65.2449C73.7428 65.8384 86.2281 67.8839 91.7804 70.544C97.2351 73.3356 102.507 76.5225 107.559 80.0825C108.446 80.6829 109.278 81.3713 110.045 82.1386V82.1386Z" fill="#BED4EB"/>
<path d="M84.5413 114.082C84.8076 117.262 80.6951 116.742 80.3007 113.563C80.202 112.726 80.133 111.899 80.064 111.104C79.2849 101.417 75.7247 91.635 71.9673 82.1601C71.0501 79.8391 65.1921 72.7382 63.417 71.1061C67.6083 75.9283 75.636 86.4101 78.0916 92.4087C80.4188 98.3834 82.3693 104.52 83.9299 110.776C84.23 111.855 84.4347 112.962 84.5413 114.082V114.082Z" fill="#BED4EB"/>
<path d="M87.0067 6.96547C86.9296 7.01598 86.8406 7.04173 86.7503 7.03967C86.6711 7.02203 86.5976 6.98242 86.537 6.92478C86.4765 6.86714 86.431 6.79349 86.4052 6.71112C86.0403 5.84206 86.2474 4.72923 85.6853 4.00854C85.1081 4.7532 84.6422 5.58988 84.3046 6.48855L82.1448 5.76787C82.0414 6.2182 82.0249 6.68649 82.0961 7.14396C82.1673 7.60142 82.3248 8.0384 82.559 8.42804C82.1913 8.60938 81.8572 8.86072 81.5728 9.16992C81.4282 9.3292 81.3269 9.52798 81.28 9.7447C81.2331 9.96142 81.2423 10.1878 81.3065 10.3993C81.8058 10.5347 82.3207 10.5918 82.8351 10.5689C82.7578 11.5898 82.8142 12.6172 83.0028 13.6212C83.0161 13.7729 83.0832 13.9134 83.1902 14.0134C83.2771 14.0501 83.3717 14.0607 83.4638 14.0439C83.556 14.0271 83.6421 13.9835 83.7129 13.918C84.4624 13.4226 85.0779 12.7246 85.4979 11.8937L86.2967 13.9498C86.3561 14.1615 86.4815 14.3448 86.6517 14.4691C86.7742 14.516 86.9077 14.5175 87.031 14.4733C87.1544 14.4291 87.2604 14.3418 87.3322 14.2253C87.4636 13.9857 87.5444 13.718 87.5689 13.441L87.8746 11.4698C87.8773 11.3685 87.9122 11.2713 87.9732 11.1942C88.0632 11.1203 88.1761 11.0862 88.2888 11.0988C89.0481 11.0988 89.8174 11.0988 90.5768 11.0988C90.7148 10.6643 90.3006 10.2616 89.916 10.039C89.5314 9.81643 89.058 9.71044 88.8608 9.30771C88.4663 8.47044 89.5018 7.31522 89.058 6.60513C88.6142 5.89504 87.6773 6.60513 87.0067 6.96547Z" fill="#BED4EB"/>
<path opacity="0.2" d="M93.536 102.7C93.4576 102.749 93.3699 102.778 93.2796 102.785C93.112 102.785 93.0035 102.605 92.9345 102.446C92.5696 101.587 92.7767 100.464 92.2146 99.7433C91.634 100.485 91.1678 101.323 90.8339 102.223L88.6741 101.503C88.5716 101.952 88.5546 102.42 88.6241 102.877C88.6936 103.334 88.8481 103.771 89.0785 104.163C88.7092 104.346 88.3748 104.601 88.0923 104.915C87.9467 105.074 87.8448 105.273 87.7978 105.49C87.7508 105.707 87.7606 105.933 87.826 106.145C88.3265 106.271 88.8407 106.325 89.3546 106.304C89.2737 107.324 89.3268 108.352 89.5124 109.356C89.5257 109.508 89.5928 109.648 89.6998 109.748C89.8576 109.854 90.0647 109.748 90.2323 109.653C90.9788 109.157 91.5909 108.459 92.0074 107.628L92.8161 109.685C92.8691 109.9 92.9959 110.085 93.1712 110.204C93.2922 110.25 93.4241 110.251 93.5458 110.207C93.6674 110.163 93.7717 110.076 93.8418 109.96C93.9776 109.722 94.0618 109.454 94.0883 109.176L94.3842 107.205C94.3961 107.106 94.4299 107.011 94.4828 106.929C94.5758 106.853 94.6924 106.819 94.8083 106.834C95.5676 106.834 96.3369 106.834 97.0963 106.834C97.2245 106.399 96.8201 105.996 96.4355 105.774C96.0508 105.551 95.5775 105.445 95.3802 105.042C94.9857 104.205 96.0114 103.061 95.5775 102.34C95.1435 101.619 94.2067 102.34 93.536 102.7Z" fill="#BED4EB"/>
<path d="M111.859 38.5265C111.78 38.5739 111.692 38.6028 111.602 38.6113C111.435 38.6113 111.326 38.4311 111.257 38.2722C110.882 37.4137 111.099 36.2903 110.527 35.5696C109.953 36.3147 109.491 37.1514 109.157 38.0496L106.987 37.3289C106.887 37.7795 106.871 38.2472 106.943 38.7042C107.014 39.1612 107.17 39.5982 107.401 39.9891C107.031 40.1697 106.696 40.4252 106.415 40.7416C106.269 40.9002 106.168 41.099 106.121 41.3159C106.074 41.5329 106.083 41.7596 106.149 41.971C106.649 42.0982 107.163 42.1517 107.677 42.1299C107.596 43.1503 107.65 44.1778 107.835 45.1823C107.848 45.334 107.915 45.4744 108.022 45.5744C108.109 45.6112 108.204 45.6217 108.296 45.6049C108.388 45.5881 108.474 45.5446 108.545 45.479C109.295 44.9837 109.91 44.2857 110.33 43.4547L111.139 45.5108C111.192 45.7259 111.319 45.9115 111.494 46.0301C111.615 46.0763 111.747 46.0773 111.868 46.0331C111.99 45.9889 112.094 45.902 112.165 45.7864C112.302 45.5495 112.383 45.2803 112.401 45.0021L112.707 43.0308C112.71 42.9296 112.744 42.8324 112.806 42.7552C112.896 42.6813 113.008 42.6472 113.121 42.6599C113.89 42.6599 114.65 42.6599 115.419 42.6599C115.547 42.2253 115.143 41.8226 114.748 41.6C114.354 41.3775 113.9 41.2715 113.703 40.8687C113.299 40.0315 114.334 38.8763 113.9 38.1662C113.466 37.4561 112.529 38.1662 111.859 38.5265Z" fill="#BED4EB"/>
<path d="M38.5747 112.302C38.4673 112.372 38.3452 112.413 38.2197 112.419C37.9928 112.419 37.8351 112.164 37.7364 111.942C37.2236 110.744 37.5195 109.197 36.7502 108.179C35.9493 109.217 35.3038 110.383 34.837 111.635L31.8193 110.638C31.678 111.266 31.6559 111.918 31.7541 112.555C31.8524 113.193 32.069 113.802 32.3912 114.348C31.859 114.6 31.3769 114.96 30.9711 115.408C30.7689 115.628 30.6271 115.903 30.561 116.204C30.4949 116.505 30.5071 116.82 30.5963 117.114C31.2921 117.302 32.0097 117.38 32.7265 117.347C32.62 118.765 32.6963 120.191 32.9533 121.586C32.9616 121.693 32.9894 121.796 33.0351 121.891C33.0808 121.985 33.1435 122.069 33.2196 122.137C33.4366 122.286 33.7226 122.137 33.9494 122C34.9893 121.305 35.8452 120.334 36.4346 119.181L37.5491 122.053C37.6284 122.351 37.8075 122.608 38.052 122.773C38.2282 122.851 38.4244 122.858 38.6052 122.794C38.786 122.73 38.9395 122.599 39.0382 122.424C39.2252 122.103 39.3401 121.74 39.3735 121.364L39.7877 118.629C39.7862 118.55 39.8013 118.471 39.832 118.399C39.8627 118.326 39.9082 118.262 39.965 118.212C40.0218 118.161 40.0886 118.124 40.1603 118.105C40.2321 118.085 40.307 118.084 40.3794 118.099C41.4445 118.099 42.4997 118.099 43.5648 118.099C43.7522 117.495 43.1802 116.923 42.6378 116.669C42.0954 116.414 41.4544 116.224 41.1782 115.609C40.626 114.454 42.0559 112.843 41.4445 111.846C40.6654 110.649 39.5116 111.804 38.5747 112.302Z" fill="#BED4EB"/>
<path d="M8.08147 40.4448C7.97334 40.5117 7.85116 40.5482 7.7264 40.5507C7.49957 40.5507 7.34179 40.307 7.24317 40.0844C6.73035 38.8868 7.02621 37.3289 6.25697 36.322C5.45603 37.3599 4.81053 38.5255 4.34375 39.7771L1.32599 38.7702C1.18475 39.3981 1.16259 40.0502 1.26086 40.6875C1.35913 41.3248 1.57584 41.9343 1.898 42.4796C1.37024 42.7403 0.889474 43.0991 0.477877 43.5395C0.275634 43.7617 0.134529 44.0396 0.0701316 44.3426C0.00573403 44.6456 0.0205574 44.9619 0.112989 45.2564C0.806227 45.4398 1.51991 45.5182 2.23333 45.4896C2.12705 46.9072 2.20336 48.3337 2.46014 49.7289C2.46857 49.8336 2.4965 49.9354 2.54224 50.0282C2.58798 50.1211 2.65062 50.2031 2.72643 50.2694C2.9434 50.4284 3.22938 50.2694 3.45621 50.1422C4.49881 49.4464 5.35517 48.4712 5.94138 47.3125L7.05579 50.1952C7.14356 50.4892 7.3207 50.743 7.55876 50.9159C7.72902 50.9758 7.9129 50.9741 8.08213 50.9109C8.25137 50.8477 8.39663 50.7266 8.49566 50.5662C8.68144 50.2451 8.79619 49.8825 8.83099 49.5063L9.24518 46.7614C9.25698 46.6209 9.30858 46.4877 9.39307 46.3798C9.45437 46.3255 9.52537 46.2853 9.6017 46.2616C9.67802 46.2379 9.75806 46.2312 9.83687 46.2421C10.902 46.2421 11.9572 46.2421 13.0223 46.2421C13.2097 45.6274 12.6476 45.0656 12.0953 44.8113C11.543 44.5569 10.9118 44.3555 10.6357 43.7514C10.0834 42.5962 11.5134 40.9853 10.9119 39.989C10.1722 38.8338 9.01836 39.9466 8.08147 40.4448Z" fill="#BED4EB"/>
<path opacity="0.2" d="M100.607 84.9372C100.552 84.9786 100.487 85.0008 100.42 85.0007C100.361 84.9876 100.306 84.9582 100.261 84.9154C100.216 84.8727 100.182 84.8181 100.163 84.757C99.8969 84.1105 100.055 83.2944 99.6306 82.7539C99.2171 83.3077 98.8846 83.926 98.6444 84.5874L97.0369 84.0575C96.963 84.3914 96.9521 84.7378 97.0046 85.0763C97.0571 85.4148 97.172 85.7387 97.3426 86.0288C97.0619 86.1585 96.8073 86.3457 96.5931 86.5799C96.4848 86.6972 96.4089 86.8445 96.3741 87.0055C96.3392 87.1665 96.3468 87.3347 96.3959 87.4914C96.7635 87.588 97.1421 87.6272 97.5201 87.6079C97.4595 88.3666 97.5027 89.1308 97.6484 89.876C97.6575 89.9872 97.7071 90.09 97.7864 90.1621C97.8506 90.189 97.9206 90.1963 97.9884 90.1832C98.0563 90.1701 98.1195 90.1371 98.171 90.0879C98.728 89.7213 99.1842 89.2018 99.4925 88.583L100.084 90.1197C100.129 90.2765 100.223 90.4115 100.351 90.5013C100.442 90.5342 100.541 90.5333 100.632 90.4987C100.724 90.4642 100.801 90.398 100.853 90.3105C100.946 90.1238 101 89.9177 101.011 89.7064L101.228 88.2438C101.229 88.2022 101.238 88.1613 101.255 88.1239C101.272 88.0866 101.297 88.0536 101.327 88.0274C101.357 88.0012 101.392 87.9823 101.429 87.9721C101.467 87.9619 101.506 87.9606 101.544 87.9683C102.106 87.9683 102.668 87.9683 103.23 87.9683C103.329 87.6503 103.033 87.3536 102.747 87.2158C102.461 87.078 102.106 86.972 101.968 86.6753C101.672 86.0606 102.431 85.2021 102.106 84.6722C101.78 84.1423 101.11 84.6828 100.607 84.9372Z" fill="#BED4EB"/>
<path opacity="0.2" d="M59.1865 110.638C59.1297 110.675 59.0655 110.697 58.9992 110.702C58.9392 110.688 58.8839 110.657 58.8388 110.612C58.7937 110.567 58.7606 110.51 58.7427 110.447C58.4765 109.811 58.6342 108.995 58.2101 108.455C57.7948 109.007 57.4621 109.626 57.224 110.288L55.6164 109.758C55.5432 110.092 55.5325 110.439 55.585 110.777C55.6375 111.116 55.7521 111.439 55.9222 111.73C55.6415 111.859 55.3869 112.047 55.1727 112.281C55.0643 112.398 54.9885 112.545 54.9537 112.706C54.9188 112.867 54.9264 113.036 54.9755 113.192C55.3431 113.289 55.7217 113.328 56.0997 113.309C56.0388 114.064 56.082 114.825 56.2279 115.566C56.235 115.679 56.2807 115.785 56.3561 115.863C56.4744 115.937 56.6323 115.863 56.7506 115.789C57.3076 115.422 57.7638 114.903 58.0721 114.284L58.6638 115.821C58.7082 115.977 58.8025 116.112 58.9301 116.202C59.0219 116.233 59.1205 116.232 59.2112 116.197C59.3019 116.163 59.3798 116.098 59.4331 116.011C59.5296 115.837 59.587 115.641 59.6007 115.439L59.8275 113.977C59.8283 113.935 59.8375 113.894 59.8545 113.857C59.8715 113.819 59.8958 113.786 59.9258 113.76C59.9559 113.734 59.9909 113.715 60.0284 113.705C60.0659 113.695 60.1051 113.693 60.1431 113.701C60.7052 113.701 61.2674 113.701 61.8295 113.701C61.9282 113.383 61.6323 113.076 61.3463 112.949C61.0603 112.821 60.7052 112.705 60.5672 112.408C60.2713 111.793 61.0307 110.935 60.7053 110.405C60.3798 109.875 59.6796 110.384 59.1865 110.638Z" fill="#BED4EB"/>
<path opacity="0.5" d="M19.1567 20.69C19.0992 20.7253 19.0353 20.747 18.9693 20.7536C18.8411 20.7536 18.7622 20.6158 18.7129 20.4992C18.4368 19.8633 18.5946 19.0366 18.1705 18.5067C17.7529 19.0575 17.42 19.6765 17.1843 20.3402L15.5077 19.7573C15.4296 20.0902 15.4156 20.4368 15.4665 20.7758C15.5173 21.1147 15.632 21.439 15.8036 21.7286C15.5262 21.8648 15.2728 22.0512 15.0541 22.2797C14.9467 22.3977 14.8715 22.545 14.8367 22.7058C14.8019 22.8665 14.8089 23.0344 14.8569 23.1912C15.2281 23.2869 15.6094 23.3296 15.991 23.3183C15.9316 24.0731 15.9714 24.833 16.1093 25.5758C16.1128 25.6311 16.1268 25.6851 16.1505 25.7344C16.1743 25.7836 16.2073 25.827 16.2474 25.8619C16.3657 25.9467 16.5137 25.8619 16.632 25.7983C17.187 25.4289 17.6425 24.9102 17.9536 24.2934L18.5453 25.8196C18.5864 25.9781 18.6815 26.1142 18.8115 26.2011C18.9018 26.239 19.0015 26.2417 19.0934 26.2088C19.1853 26.1759 19.2634 26.1094 19.3145 26.0209C19.413 25.8431 19.4737 25.644 19.492 25.438L19.709 23.986C19.7145 23.9084 19.7421 23.8344 19.7879 23.7741C19.8214 23.7471 19.8596 23.7276 19.9002 23.7167C19.9409 23.7058 19.9831 23.7037 20.0245 23.7105C20.5867 23.7105 21.1488 23.7105 21.7208 23.7105C21.8095 23.3819 21.5137 23.0852 21.2277 22.9474C20.9417 22.8096 20.5965 22.7142 20.4486 22.4069C20.1527 21.7922 20.9121 20.9443 20.5966 20.4144C20.281 19.8845 19.6005 20.425 19.1567 20.69Z" fill="#BED4EB"/>
<path opacity="0.5" d="M40.4387 71.3813C40.3777 71.4016 40.3123 71.4016 40.2513 71.3813C40.1329 71.3813 40.0442 71.2541 39.9949 71.1375C39.7187 70.5016 39.8765 69.6749 39.4623 69.1344C39.0438 69.6883 38.7108 70.311 38.4761 70.9785L36.8785 70.438C36.8024 70.7717 36.7903 71.1185 36.8428 71.4574C36.8954 71.7963 37.0115 72.1202 37.1842 72.4093C36.9018 72.5415 36.6444 72.7283 36.4248 72.9604C36.3184 73.079 36.2438 73.2263 36.2091 73.3868C36.1743 73.5473 36.1807 73.715 36.2276 73.8719C36.5989 73.9671 36.9802 74.0098 37.3617 73.999C37.3024 74.7537 37.3422 75.5137 37.4801 76.2565C37.4892 76.3677 37.5388 76.4705 37.6181 76.5426C37.7364 76.6274 37.8943 76.5426 38.0126 76.479C38.5645 76.109 39.0167 75.5901 39.3243 74.9741L39.9258 76.5002C39.967 76.6588 40.062 76.7949 40.1921 76.8818C40.2814 76.9131 40.3777 76.9125 40.4666 76.88C40.5555 76.8476 40.6322 76.7849 40.6852 76.7016C40.7881 76.526 40.8491 76.3257 40.8627 76.1187L41.0895 74.6667C41.0916 74.5901 41.1157 74.5161 41.1586 74.4548C41.2281 74.4035 41.311 74.3775 41.3953 74.3806C41.9574 74.3806 42.5294 74.3806 43.0915 74.3806C43.1902 74.052 42.8844 73.7553 42.5984 73.6175C42.3124 73.4797 41.9672 73.3843 41.8193 73.077C41.5333 72.4623 42.2927 71.6038 41.9673 71.0739C41.6418 70.544 40.9318 71.1163 40.4387 71.3813Z" fill="#BED4EB"/>
<path opacity="0.5" d="M24.9553 51.6155C24.8985 51.6525 24.8342 51.6744 24.7679 51.6791C24.708 51.665 24.6527 51.634 24.6076 51.5893C24.5625 51.5446 24.5293 51.4878 24.5115 51.4247C24.2353 50.7888 24.3931 49.9622 23.9789 49.4323C23.5606 49.9824 23.2275 50.6015 22.9928 51.2658L21.3951 50.7358C21.3196 51.0696 21.3077 51.4163 21.3603 51.7551C21.4128 52.0939 21.5287 52.4178 21.7008 52.7071C21.4184 52.8393 21.161 53.0261 20.9414 53.2582C20.835 53.3768 20.7604 53.5242 20.7257 53.6847C20.6909 53.8452 20.6973 54.0128 20.7442 54.1697C21.115 54.2673 21.497 54.3066 21.8783 54.2863C21.819 55.041 21.8588 55.801 21.9967 56.5437C21.9999 56.6006 22.0138 56.6562 22.0376 56.7072C22.0613 56.7582 22.0944 56.8035 22.1348 56.8405C22.2531 56.9147 22.4109 56.8405 22.5292 56.7663C23.0832 56.399 23.536 55.8794 23.8409 55.2613L24.4424 56.7981C24.4869 56.9549 24.5811 57.0899 24.7087 57.1796C24.7989 57.2118 24.8966 57.2105 24.986 57.1759C25.0754 57.1413 25.1514 57.0754 25.2018 56.9889C25.3016 56.8117 25.3623 56.6123 25.3793 56.4059L25.6061 54.954C25.6083 54.8806 25.6325 54.8099 25.6752 54.7526C25.7424 54.6965 25.8271 54.6699 25.9119 54.6784C26.474 54.6784 27.046 54.6784 27.6081 54.6784C27.7068 54.3605 27.401 54.0531 27.115 53.9259C26.829 53.7988 26.4839 53.6822 26.336 53.3854C26.0401 52.7707 26.8093 51.9123 26.4839 51.3823C26.1584 50.8524 25.4484 51.3505 24.9553 51.6155Z" fill="#BED4EB"/>
<path opacity="0.5" d="M91.4645 56.2688C91.407 56.3042 91.3431 56.3258 91.2771 56.3324C91.2163 56.3205 91.1599 56.2903 91.1145 56.2453C91.069 56.2002 91.0365 56.1422 91.0207 56.0781C90.7445 55.4422 90.9023 54.6261 90.4783 54.0856C90.0629 54.638 89.7302 55.2566 89.4921 55.9191L87.8944 55.3892C87.8175 55.7222 87.804 56.0685 87.8548 56.4073C87.9057 56.7461 88.0198 57.0703 88.1903 57.3604C87.911 57.4929 87.6568 57.6798 87.4408 57.9116C87.3324 58.0288 87.2566 58.1762 87.2217 58.3372C87.1869 58.4982 87.1944 58.6664 87.2435 58.823C87.6143 58.9207 87.9964 58.9599 88.3777 58.9396C88.3183 59.6943 88.3581 60.4543 88.496 61.1971C88.4993 61.254 88.5132 61.3095 88.5369 61.3605C88.5606 61.4115 88.5937 61.4569 88.6341 61.4938C88.7524 61.568 88.9004 61.4938 89.0187 61.4196C89.5757 61.0529 90.0318 60.5335 90.3402 59.9146L90.9319 61.4514C90.9764 61.6082 91.0706 61.7432 91.1982 61.8329C91.2898 61.8659 91.3891 61.865 91.4802 61.8304C91.5713 61.7958 91.649 61.7296 91.7011 61.6422C91.801 61.465 91.8617 61.2656 91.8787 61.0593L92.0957 59.6073C92.0964 59.5657 92.1056 59.5248 92.1226 59.4874C92.1395 59.45 92.1639 59.4171 92.1939 59.3908C92.224 59.3646 92.259 59.3457 92.2965 59.3355C92.334 59.3253 92.3732 59.324 92.4112 59.3317C92.9734 59.3317 93.5355 59.3317 94.1075 59.3317C94.1962 59.0138 93.9004 58.7064 93.6144 58.5793C93.3284 58.4521 92.9832 58.3355 92.8353 58.0387C92.5394 57.424 93.2988 56.5656 92.9832 56.0357C92.6676 55.5057 91.9576 56.0039 91.4645 56.2688Z" fill="#BED4EB"/>
<path opacity="0.2" d="M59.1865 52.3793C59.1317 52.4207 59.0662 52.4429 58.9992 52.4429C58.9404 52.4297 58.8858 52.4003 58.8408 52.3576C58.7959 52.3148 58.7621 52.2602 58.7427 52.1991C58.4765 51.5632 58.6342 50.7366 58.2101 50.196C57.7967 50.7499 57.4642 51.3681 57.224 52.0296L55.6164 51.4996C55.5426 51.8335 55.5317 52.1799 55.5842 52.5185C55.6367 52.857 55.7516 53.1808 55.9222 53.4709C55.6415 53.6007 55.3869 53.7879 55.1727 54.022C55.0643 54.1393 54.9885 54.2867 54.9537 54.4477C54.9188 54.6086 54.9264 54.7769 54.9755 54.9335C55.3431 55.0301 55.7217 55.0694 56.0997 55.0501C56.0388 55.8088 56.082 56.5729 56.2279 57.3181C56.2374 57.4269 56.2828 57.5285 56.3561 57.6043C56.422 57.6309 56.4934 57.638 56.5628 57.625C56.6322 57.6119 56.697 57.5792 56.7506 57.5301C57.3076 57.1634 57.7638 56.644 58.0721 56.0251L58.6638 57.5619C58.7082 57.7187 58.8025 57.8537 58.9301 57.9434C59.0219 57.9745 59.1205 57.9727 59.2112 57.9383C59.3019 57.9039 59.3798 57.8387 59.4331 57.7527C59.5296 57.5785 59.587 57.3825 59.6007 57.1803L59.8275 55.7178C59.8283 55.6762 59.8375 55.6353 59.8545 55.5979C59.8715 55.5605 59.8958 55.5276 59.9258 55.5013C59.9559 55.4751 59.9909 55.4562 60.0284 55.446C60.0659 55.4358 60.1051 55.4345 60.1431 55.4422C60.7052 55.4422 61.2674 55.4422 61.8295 55.4422C61.9282 55.1243 61.6323 54.8275 61.3463 54.6897C61.0603 54.552 60.7052 54.446 60.5672 54.1492C60.2713 53.5345 61.0307 52.676 60.7053 52.1461C60.3798 51.6162 59.6796 52.1249 59.1865 52.3793Z" fill="#BED4EB"/>
<path opacity="0.3" d="M49.068 57.1165C49.007 57.1521 48.9399 57.1737 48.8707 57.1801C48.7524 57.1801 48.6735 57.0423 48.6143 56.9257C48.348 56.2898 48.5059 55.4631 48.0818 54.9332C47.6664 55.4856 47.3337 56.1042 47.0956 56.7667L45.4881 56.2368C45.4148 56.5708 45.4041 56.917 45.4566 57.2555C45.5091 57.5939 45.6237 57.9177 45.7938 58.2081C45.5125 58.3366 45.2577 58.524 45.0443 58.7592C44.9359 58.8765 44.8601 59.0239 44.8252 59.1848C44.7904 59.3458 44.7979 59.5141 44.847 59.6707C45.2146 59.7673 45.5933 59.8066 45.9713 59.7873C45.9153 60.5425 45.9585 61.3024 46.0995 62.0447C46.1017 62.1003 46.1152 62.1548 46.1391 62.2042C46.1629 62.2536 46.1966 62.2969 46.2376 62.3309C46.356 62.4156 46.5038 62.3309 46.6222 62.2673C47.1771 61.8979 47.6327 61.3791 47.9437 60.7623L48.5354 62.2885C48.5769 62.4496 48.6716 62.5889 48.8017 62.6806C48.8933 62.7135 48.9926 62.7126 49.0837 62.6781C49.1748 62.6435 49.2526 62.5773 49.3047 62.4898C49.3987 62.3099 49.459 62.1118 49.4822 61.9069L49.6991 60.4549C49.6999 60.4134 49.7091 60.3724 49.7261 60.3351C49.7431 60.2977 49.7674 60.2647 49.7975 60.2385C49.8275 60.2123 49.8625 60.1934 49.9 60.1832C49.9376 60.173 49.9767 60.1717 50.0147 60.1794C50.5768 60.1794 51.139 60.1794 51.711 60.1794C51.7997 59.8614 51.5039 59.5541 51.2179 59.4163C50.9319 59.2785 50.5867 59.1832 50.4388 58.8864C50.1429 58.2611 50.9023 57.4132 50.5768 56.8833C50.2514 56.3534 49.5611 56.8515 49.068 57.1165Z" fill="#BED4EB"/>
<path opacity="0.2" d="M39.6196 28.4693C39.5639 28.5076 39.4983 28.5261 39.4323 28.5222C39.3139 28.5222 39.2251 28.3951 39.1758 28.2785C38.9096 27.6426 39.0674 26.8159 38.6433 26.2754C38.2299 26.8292 37.8974 27.4475 37.6571 28.1089L36.0496 27.579C35.9758 27.9129 35.9648 28.2593 36.0173 28.5978C36.0698 28.9363 36.1847 29.2602 36.3553 29.5503C36.0746 29.68 35.82 29.8672 35.6058 30.1014C35.4975 30.2187 35.4216 30.366 35.3868 30.527C35.3519 30.688 35.3595 30.8562 35.4086 31.0128C35.7765 31.108 36.1545 31.1508 36.5328 31.14C36.4719 31.8952 36.5151 32.6559 36.661 33.3975C36.6705 33.5063 36.716 33.6078 36.7893 33.6836C36.9076 33.7684 37.0654 33.6836 37.1838 33.6094C37.7404 33.2469 38.1966 32.7309 38.5052 32.1151L39.0969 33.6412C39.1414 33.798 39.2356 33.933 39.3632 34.0228C39.454 34.0532 39.5515 34.0522 39.6417 34.0199C39.732 33.9875 39.8105 33.9255 39.8662 33.8426C39.9616 33.6641 40.0188 33.465 40.0338 33.2597L40.2607 31.8077C40.2662 31.7301 40.2937 31.6561 40.3395 31.5958C40.4084 31.543 40.4918 31.5169 40.5762 31.5216C41.1384 31.5216 41.7005 31.5216 42.2626 31.5216C42.3613 31.193 42.0654 30.8963 41.7794 30.7585C41.4934 30.6207 41.1384 30.5147 41.0003 30.218C40.7045 29.6033 41.4638 28.7448 41.1384 28.2149C40.8129 27.685 40.1127 28.2361 39.6196 28.4693Z" fill="#BED4EB"/>
<path opacity="0.3" d="M58.2198 65.8604C58.1809 65.8895 58.1359 65.9078 58.0888 65.9136C58.0418 65.9194 57.9941 65.9125 57.9501 65.8936C57.9061 65.8747 57.8671 65.8443 57.8368 65.8052C57.8064 65.7661 57.7855 65.7195 57.776 65.6696C57.4999 65.0337 57.6577 64.207 57.2336 63.6665C56.8202 64.2203 56.4877 64.8386 56.2474 65.5L54.6498 64.9701C54.574 65.3033 54.5611 65.6494 54.6119 65.988C54.6627 66.3266 54.7762 66.6508 54.9456 66.9414C54.6676 67.0763 54.4139 67.2629 54.1962 67.4925C54.0878 67.6098 54.0119 67.7572 53.9771 67.9181C53.9422 68.0791 53.9498 68.2473 53.9989 68.404C54.3697 68.5016 54.7517 68.5409 55.133 68.5205C55.0734 69.2788 55.1132 70.0423 55.2514 70.7886C55.2605 70.8998 55.3102 71.0026 55.3894 71.0747C55.4537 71.1016 55.5236 71.1089 55.5914 71.0958C55.6593 71.0827 55.7225 71.0497 55.7741 71.0006C56.3283 70.6349 56.7839 70.1197 57.0955 69.5062L57.6873 71.0324C57.7317 71.1891 57.826 71.3242 57.9536 71.4139C58.0452 71.4468 58.1444 71.4459 58.2355 71.4114C58.3266 71.3768 58.4044 71.3105 58.4565 71.2231C58.5488 71.0406 58.5995 70.8372 58.6045 70.6296L58.8214 69.167C58.8313 69.0938 58.8585 69.0245 58.9003 68.9657C58.9671 68.9085 59.0521 68.8819 59.137 68.8915C59.6991 68.8915 60.2711 68.8915 60.8333 68.8915C60.9319 68.5735 60.6262 68.2768 60.3402 68.139C60.0542 68.0012 59.709 67.8952 59.561 67.5985C59.2652 66.9838 60.0344 66.1253 59.709 65.5954C59.3835 65.0655 58.7129 65.5954 58.2198 65.8604Z" fill="#BED4EB"/>
</svg>
